<svg xmlns="http://www.w3.org/2000/svg" xmlns:xlink="http://www.w3.org/1999/xlink" viewBox="0 0 50 50" version="1.1">
<g id="surface1">
<path style=" " d="M 25 2 C 15.65625 2 8 9.65625 8 19 L 8 31 C 8 40.34375 15.65625 48 25 48 C 34.34375 48 42 40.34375 42 31 L 42 19 C 42 9.65625 34.34375 2 25 2 Z M 25 4 C 33.253906 4 40 10.746094 40 19 L 40 31 C 40 39.253906 33.253906 46 25 46 C 16.746094 46 10 39.253906 10 31 L 10 19 C 10 10.746094 16.746094 4 25 4 Z M 25 6 C 18.25 6 12.726563 11.085938 12.0625 17.65625 C 12.019531 18.09375 12 18.550781 12 19 L 12 31 C 12 38.199219 17.800781 44 25 44 C 32.199219 44 38 38.199219 38 31 L 38 19 C 38 11.800781 32.199219 6 25 6 Z M 25 8 C 25.289063 8 25.5625 8.007813 25.84375 8.03125 C 25.855469 8.03125 25.863281 8.03125 25.875 8.03125 C 26.148438 8.054688 26.421875 8.082031 26.6875 8.125 C 26.699219 8.125 26.707031 8.125 26.71875 8.125 C 26.984375 8.167969 27.242188 8.21875 27.5 8.28125 C 27.519531 8.285156 27.542969 8.277344 27.5625 8.28125 C 27.8125 8.34375 28.070313 8.453125 28.3125 8.53125 C 28.320313 8.535156 28.335938 8.527344 28.34375 8.53125 C 28.597656 8.613281 28.851563 8.714844 29.09375 8.8125 C 29.101563 8.816406 29.117188 8.808594 29.125 8.8125 C 29.875 9.121094 30.5625 9.511719 31.21875 9.96875 C 31.226563 9.972656 31.242188 9.964844 31.25 9.96875 C 31.464844 10.117188 31.671875 10.273438 31.875 10.4375 C 31.882813 10.441406 31.898438 10.433594 31.90625 10.4375 C 32.109375 10.601563 32.277344 10.789063 32.46875 10.96875 C 32.472656 10.972656 32.496094 10.964844 32.5 10.96875 C 33.671875 12.078125 34.589844 13.46875 35.1875 15 L 14.8125 15 C 15.410156 13.46875 16.328125 12.078125 17.5 10.96875 C 17.894531 10.59375 18.332031 10.28125 18.78125 9.96875 C 19.4375 9.511719 20.125 9.121094 20.875 8.8125 C 22.140625 8.296875 23.53125 8 25 8 Z M 21.8125 11 C 21.261719 11.050781 20.855469 11.542969 20.90625 12.09375 C 20.957031 12.644531 21.449219 13.050781 22 13 L 28 13 C 28.359375 13.003906 28.695313 12.816406 28.878906 12.503906 C 29.058594 12.191406 29.058594 11.808594 28.878906 11.496094 C 28.695313 11.183594 28.359375 10.996094 28 11 L 22 11 C 21.96875 11 21.9375 11 21.90625 11 C 21.875 11 21.84375 11 21.8125 11 Z M 28 21 C 29.898438 21 31.507813 22.386719 31.90625 24.1875 C 32.804688 24.488281 33.511719 25.195313 33.8125 26.09375 L 34 26.09375 C 34.792969 26.09375 35.472656 26.402344 36 26.875 L 36 31 C 36 31.09375 36.003906 31.1875 36 31.28125 C 35.476563 31.734375 34.78125 32 34 32 L 22 32 C 20.300781 32 19 30.699219 19 29 C 19 27.699219 19.898438 26.585938 21 26.1875 C 21.199219 24.988281 22.199219 24 23.5 24 C 23.699219 24 23.894531 23.992188 24.09375 24.09375 C 24.492188 22.292969 26.101563 21 28 21 Z "></path>
</g>
</svg>